<svg width="129" height="128" viewBox="0 0 129 128" version="1.1" xmlns="http://www.w3.org/2000/svg" xmlns:xlink="http://www.w3.org/1999/xlink">
<g id="Canvas" fill="none">
<g id="nsj-text-white">
<g id="Group">
<g id="Vector">
<path d="M 96.7709 32.5261L 73.3705 5.37664L 68.7368 2.03974e-10L 13.4416 2.03974e-10C 6.01221 2.03974e-10 7.53571e-07 6.01221 7.53571e-07 13.4416L 7.53571e-07 30.5292L 8.32692 30.5292L 8.32262 16.714C 8.3398 12.5355 11.6938 9.15574 15.8637 9.15574L 63.1755 9.1128L 63.1755 31.5212C 63.1755 39.8653 69.9134 46.6247 78.2618 46.6247L 94.6408 46.6247L 93.8335 111.26C 93.8206 115.43 90.4537 118.784 86.2967 118.806L 15.2667 118.767C 11.4661 118.767 8.40851 115.048 8.38274 110.444L 8.38274 104.978L 0.0429441 104.978L 0.0429441 113.133C 0.0429441 121.331 5.53553 128 12.2821 128L 88.7145 127.979C 96.1396 127.979 102.16 121.936 102.16 114.52L 102.16 38.7831L 96.7709 32.5261Z" transform="translate(26.2648 0)" fill="white"/>
</g>
<g id="Vector_2">
<path d="M 86.6832 82.7882L 0 82.7882L 0 -2.62112e-07L 86.6832 -2.62112e-07L 86.6832 82.7882ZM 8.32262 74.4527L 78.3477 74.4527L 78.3477 8.3355L 8.32262 8.3355" transform="translate(0 26.3593)" fill="white"/>
</g>
<g id="Vector_3">
<path d="M -4.1774e-07 -1.04845e-06L 59.7313 -1.04845e-06L 59.7313 8.53305L -4.1774e-07 8.53305L -4.1774e-07 -1.04845e-06Z" transform="translate(13.214 46.9382)" fill="white"/>
</g>
<g id="Vector_4">
<path d="M 2.94876e-07 5.89751e-07L 59.7356 5.89751e-07L 59.7356 8.53305L 2.94876e-07 8.53305L 2.94876e-07 5.89751e-07Z" transform="translate(13.2183 64.0087)" fill="white"/>
</g>
<g id="Vector_5">
<path d="M 2.94876e-07 -3.60404e-06L 34.1322 -3.60404e-06L 34.1322 8.53734L 2.94876e-07 8.53734L 2.94876e-07 -3.60404e-06Z" transform="translate(13.2183 81.0748)" fill="white"/>
</g>
</g>
</g>
</g>
</svg>

