<svg width="137" height="128" viewBox="0 0 137 128" version="1.1" xmlns="http://www.w3.org/2000/svg" xmlns:xlink="http://www.w3.org/1999/xlink">
<title>nsj-available</title>
<desc>Created using Figma</desc>
<g id="Canvas" transform="translate(304 1006)">
<g id="nsj-available">
<g id="Group">
<g id="Vector">
<use xlink:href="#path0_fill" transform="translate(-269.489 -944.46)" fill="#CC2727"/>
</g>
<g id="Vector">
<use xlink:href="#path1_fill" transform="translate(-246.913 -1006)" fill="#EB5757"/>
</g>
<g id="Vector">
<use xlink:href="#path2_fill" transform="translate(-269.489 -954.237)" fill="#EB5757"/>
</g>
</g>
<g id="Group">
<g id="Vector">
<use xlink:href="#path0_fill" transform="translate(-304 -931.488)" fill="#219653"/>
</g>
<g id="Vector">
<use xlink:href="#path1_fill" transform="translate(-281.424 -993.028)" fill="#27AE60"/>
</g>
<g id="Vector">
<use xlink:href="#path2_fill" transform="translate(-304 -941.265)" fill="#27AE60"/>
</g>
</g>
</g>
</g>
<defs>
<path id="path0_fill" d="M 30.638 -0.000140415C 14.0934 7.4767 2.09616 23.0058 0 41.9855C 0 48.3121 4.77541 53.4883 11.1086 53.4883L 91.3772 53.4883C 97.7127 53.4883 102.489 48.3121 102.489 41.9855C 100.39 23.0058 88.3901 7.4767 71.849 -0.000140415C 68.128 7.4767 60.319 13.2284 51.2429 13.2284C 42.1668 13.2284 34.3561 7.4767 30.638 -0.000140415L 30.638 -0.000140415Z"/>
<path id="path1_fill" d="M 57.3347 28.7571C 57.3347 36.3839 54.3144 43.6984 48.9382 49.0914C 43.5621 54.4844 36.2704 57.5142 28.6674 57.5142C 21.0643 57.5142 13.7726 54.4844 8.39647 49.0914C 3.0203 43.6984 -1.01847e-14 36.3839 -1.01847e-14 28.7571C -1.01847e-14 21.1302 3.0203 13.8158 8.39647 8.42276C 13.7726 3.02976 21.0643 1.27707e-15 28.6674 -3.83121e-15C 36.2704 -3.19268e-15 43.5621 3.02976 48.9382 8.42276C 54.3144 13.8158 57.3347 21.1302 57.3347 28.7571L 57.3347 28.7571Z"/>
<path id="path2_fill" d="M 51.2429 0C 43.9213 0 36.9419 1.54713 30.638 4.31356C 14.0934 11.5719 2.09616 27.302 0 46.0113C 0 52.3667 4.77541 57.5142 11.1086 57.5142L 91.3772 57.5142C 97.7127 57.5142 102.489 52.3667 102.489 46.0113C 100.39 27.302 88.3901 11.5719 71.849 4.31356C 65.5422 1.54713 58.5645 0 51.2429 0L 51.2429 0Z"/>
</defs>
</svg>
