<svg width="129" height="128" viewBox="0 0 129 128" version="1.1" xmlns="http://www.w3.org/2000/svg" xmlns:xlink="http://www.w3.org/1999/xlink">
<g id="Canvas" fill="none">
<g id="nsj-word-white">
<g id="Group">
<g id="Vector">
<path d="M 96.7697 32.521L 73.3609 5.37729L 68.7341 0L 13.4304 0C 6.00764 0 0 6.01193 0 13.4389L 0 30.5227L 8.32751 30.5227L 8.32322 16.7108C 8.33179 12.5341 11.6894 9.15511 15.8574 9.15511L 63.1552 9.11223L 63.1552 31.5176C 63.1595 39.8622 69.9047 46.6203 78.2537 46.6203L 94.6257 46.6203L 93.8195 111.259C 93.8109 115.419 90.4405 118.772 86.281 118.802L 15.2657 118.772C 11.4664 118.772 8.40469 115.037 8.38754 110.444L 8.38754 104.981L 0.0428821 104.981L 0.0428821 113.133C 0.0428821 121.341 5.53595 128 12.2811 128L 88.7124 127.974C 96.1308 127.974 102.156 121.932 102.156 114.531L 102.156 38.7774L 96.7697 32.521Z" transform="translate(26.2646 0)" fill="white"/>
</g>
<g id="Vector_2">
<path d="M 86.6755 82.7776L 0 82.7776L 0 -7.03387e-07L 86.6755 -7.03387e-07L 86.6755 82.7776ZM 8.3275 74.4501L 78.3351 74.4501L 78.3351 8.33179L 8.3275 8.33179" transform="translate(0 26.3589)" fill="white"/>
</g>
<g id="Vector_3">
<path d="M 60.3208 -2.94441e-07L 47.6537 38.4772L 37.1393 38.4772L 29.901 16.1747L 22.311 38.4772L 11.8309 38.4772L -4.4984e-07 -2.94441e-07L 10.776 -2.94441e-07L 17.667 24.8667L 26.0631 -2.94441e-07L 34.2577 -2.94441e-07L 42.0706 24.8667L 49.5619 -2.94441e-07L 60.3208 -2.94441e-07Z" transform="translate(12.7999 51.1228)" fill="white"/>
</g>
</g>
</g>
</g>
</svg>

