<svg width="129" height="128" viewBox="0 0 129 128" version="1.1" xmlns="http://www.w3.org/2000/svg" xmlns:xlink="http://www.w3.org/1999/xlink">
<g id="Canvas" fill="none">
<g id="nsj-excel-white">
<g id="Group">
<g id="Vector">
<path fill-rule="evenodd" clip-rule="evenodd" d="M 96.7662 32.5197L 73.359 5.37495L 68.7299 -1.02192e-09L 13.4288 -1.02192e-09C 6.00502 -1.02192e-09 8.01185e-07 6.0136 8.01185e-07 13.4417L 8.01185e-07 30.5223L 8.32388 30.5223L 8.31959 16.7121C 8.32816 12.533 11.6886 9.15112 15.8548 9.15112L 63.1492 9.10826L 63.1492 31.5167C 63.1578 39.862 69.9 46.6172 78.2539 46.6172L 94.623 46.6172L 93.8172 111.258C 93.8044 115.416 90.4311 118.772 86.2777 118.806L 15.2547 118.772C 11.4528 118.772 8.39246 115.043 8.37532 110.448L 8.37532 104.974L 0.0385762 104.974L 0.0385762 113.135C 0.0385762 121.331 5.53354 128 12.2801 128L 88.708 127.983C 96.1318 127.983 102.154 121.939 102.154 114.528L 102.154 38.7776L 96.7662 32.5197Z" transform="translate(26.2704 0)" fill="white"/>
</g>
<g id="Vector_2">
<path d="M 86.6806 82.7844L 0 82.7844L 0 -6.8673e-07L 86.6806 -6.8673e-07L 86.6806 82.7844ZM 8.32816 74.452L 78.3353 74.452L 78.3353 8.33245L 8.32816 8.33245" transform="translate(0 26.356)" fill="white"/>
</g>
<g id="Vector_3">
<path d="M 49.6775 42.8838L 35.0829 42.8838L 25.1217 28.8078L 14.6632 42.8838L -5.72275e-07 42.8838L 18.1908 20.0125L 3.50186 1.66777e-06L 18.3108 1.66777e-06L 25.1859 10.8785L 32.5154 1.66777e-06L 47.5858 1.66777e-06L 32.1854 20.0125L 49.6775 42.8838Z" transform="translate(17.7451 46.7115)" fill="white"/>
</g>
</g>
</g>
</g>
</svg>

