<svg width="129" height="128" viewBox="0 0 129 128" version="1.1" xmlns="http://www.w3.org/2000/svg" xmlns:xlink="http://www.w3.org/1999/xlink">
<g id="Canvas" fill="none">
<g id="nsj-image-white">
<g id="Group">
<g id="Vector" opacity="0.898">
<path d="M -1.63677e-08 23.41L 12.4988 14.0306L 18.8705 18.6817L 44.1169 0L 53.4964 6.97238L 59.8595 2.32556L 59.8595 23.41L -1.63677e-08 23.41Z" transform="translate(12.6747 63.8241)" fill="white"/>
</g>
<g id="Vector_2" opacity="0.898">
<path d="M 8.44409 5.56502e-07C 13.0995 5.56502e-07 16.8839 3.52695 16.8839 7.86484C 16.8839 12.2156 13.0995 15.7297 8.44409 15.7297C 3.77581 15.7297 -1.63677e-08 12.2156 -1.63677e-08 7.86484C -1.63677e-08 3.52695 3.77581 5.56502e-07 8.44409 5.56502e-07Z" transform="translate(15.3564 46.936)" fill="white"/>
</g>
<g id="Vector_3">
<path d="M 96.7766 32.5235L 73.3752 5.37624L 68.7326 0L 13.4385 0C 6.01126 0 -8.02017e-07 6.01126 -8.02017e-07 13.4385L -8.02017e-07 30.5197L 8.32824 30.5197L 8.32395 16.7123C 8.34111 12.5331 11.6964 9.15634 15.8627 9.15634L 63.1633 9.11343L 63.1633 31.5194C 63.1719 39.8648 69.9083 46.6227 78.258 46.6227L 94.6313 46.6227L 93.8332 111.262C 93.8074 115.42 90.4521 118.775 86.2859 118.809L 15.2663 118.775C 11.4647 118.775 8.40976 115.042 8.38402 110.455L 8.38402 104.976L 0.0429071 104.976L 0.0429071 113.133C 0.0429071 121.345 5.535 128 12.2843 128L 88.7101 127.979C 96.1416 127.979 102.157 121.946 102.157 114.532L 102.157 38.7793L 96.7766 32.5235Z" transform="translate(26.2633 0)" fill="white"/>
</g>
<g id="Vector_4">
<path d="M 86.6763 82.7847L 0 82.7847L 0 5.40134e-07L 86.6763 5.40134e-07L 86.6763 82.7847ZM 8.32395 74.4478L 78.3438 74.4478L 78.3438 8.33253L 8.32395 8.33253" transform="translate(0 26.3578)" fill="white"/>
</g>
</g>
</g>
</g>
</svg>

