<svg width="129" height="128" viewBox="0 0 129 128" version="1.1" xmlns="http://www.w3.org/2000/svg" xmlns:xlink="http://www.w3.org/1999/xlink">
<g id="Canvas" fill="none">
<g id="nsj-pdf-white">
<g id="Group">
<g id="Vector">
<path d="M 96.7745 32.5249L 73.3758 5.37851L 68.7374 1.12204e-10L 13.442 1.12204e-10C 6.01102 1.12204e-10 3.93934e-07 6.01103 3.93934e-07 13.442L 3.93934e-07 30.5284L 8.33024 30.5284L 8.32594 16.7164C 8.34315 12.5384 11.6993 9.16068 15.8645 9.16068L 63.1696 9.11765L 63.1696 31.5267C 63.1739 39.8698 69.9121 46.6296 78.2595 46.6296L 94.6403 46.6296L 93.8271 111.258C 93.8099 115.419 90.4537 118.775 86.2886 118.805L 15.2664 118.77C 11.467 118.77 8.40769 115.044 8.38187 110.445L 8.38187 104.976L 0.0430274 104.976L 0.0430274 113.134C 0.0430274 121.339 5.53771 128 12.2845 128L 88.7153 127.978C 96.142 127.978 102.157 121.937 102.157 114.528L 102.157 38.7812L 96.7745 32.5249Z" transform="translate(26.2644 0)" fill="white"/>
</g>
<g id="Vector_2">
<path d="M 86.6801 82.7818L 0 82.7818L 0 8.04282e-07L 86.6801 8.04282e-07L 86.6801 82.7818ZM 8.32163 74.4515L 78.3456 74.4515L 78.3456 8.33024L 8.32163 8.33024" transform="translate(0 26.3589)" fill="white"/>
</g>
<g id="Vector_3">
<path d="M 29.2081 0.68471C 30.5204 1.29141 30.2494 2.09603 29.8449 5.85239C 29.4275 9.74643 28.0635 16.8418 25.4044 23.808C 22.7539 30.7872 18.8254 37.62 15.4004 42.6973C 11.971 47.7661 9.04082 51.0577 6.80335 52.9639C 4.5702 54.8614 3.00828 55.3691 2.00572 55.5412C 1.00317 55.7134 0.547069 55.5412 0.263083 55.0378C -0.00799391 54.5301 -0.0983525 53.6824 0.129696 52.667C 0.357745 51.6601 0.908505 50.4725 2.46182 48.9536C 4.01083 47.4304 6.57531 45.5759 10.1423 43.8419C 13.7094 42.1122 18.279 40.5072 22.0267 39.4057C 25.7744 38.3042 28.7004 37.7147 31.2605 37.2543C 33.8207 36.7896 36.0108 36.4497 38.1622 36.2819C 40.3136 36.1097 42.4134 36.1097 44.4745 36.2819C 46.5312 36.4497 48.5406 36.7853 50.2746 37.2113C 52.0216 37.6286 53.4802 38.145 54.7582 38.941C 56.0447 39.7456 57.1333 40.8385 57.6884 42.0648C 58.2348 43.2954 58.2348 44.6465 57.7787 45.6147C 57.327 46.5914 56.4105 47.1809 55.3563 47.5122C 54.2978 47.8564 53.1102 47.9382 51.6946 47.5122C 50.2746 47.0905 48.631 46.1611 46.8969 44.9348C 45.1586 43.7128 43.3299 42.1896 40.9548 39.8274C 38.5753 37.4565 35.6537 34.2423 33.1796 31.1228C 30.7141 27.9946 28.7004 24.9526 27.3364 22.3752C 25.9638 19.7978 25.2323 17.6851 24.6385 15.5681C 24.0447 13.4554 23.5886 11.3514 23.4036 9.44953C 23.2186 7.54339 23.3132 5.84808 23.494 4.5056C 23.6747 3.15022 23.9501 2.13906 24.4105 1.45921C 24.8666 0.783672 25.512 0.448055 25.9681 0.275942C 26.4242 0.10383 26.6952 0.103831 26.9749 0.0651053C 27.246 0.0263801 27.5171 -0.0596761 27.9302 0.0651053C 28.3346 0.19419 28.8596 0.512595 29.3931 0.839608" stroke-width="0.75" stroke-miterlimit="10" stroke-linejoin="round" transform="translate(15.1711 38.3245)" stroke="white"/>
</g>
</g>
</g>
</g>
</svg>

