<?xml version="1.0" ?><svg height="24" version="1.1" width="24" xmlns="http://www.w3.org/2000/svg" xmlns:cc="http://creativecommons.org/ns#" xmlns:dc="http://purl.org/dc/elements/1.1/" xmlns:rdf="http://www.w3.org/1999/02/22-rdf-syntax-ns#"><g transform="translate(0 -1028.4)"><path d="m23 1048.4c0 1.1-0.895 2-2 2h-8-4-6c-1.1046 0-2-0.9-2-2v-14c0-1.1 0.8954-2 2-2h6 4 4 4c1.105 0 2 0.9 2 2v4 10z" fill="#95a5a6"/><path d="m1 1047.4c0 1.1 0.8954 2 2 2h8 4 6c1.105 0 2-0.9 2-2v-14c0-1.1-0.895-2-2-2h-6-4-4-4c-1.1046 0-2 0.9-2 2v4 10z" fill="#bdc3c7"/><rect fill="#ecf0f1" height="14" transform="translate(0 1028.4)" width="18" x="3" y="5"/><g fill="#bdc3c7"><rect height="2" width="2" x="3" y="1033.4"/><rect height="2" width="2" x="5" y="1035.4"/><rect height="2" width="2" x="3" y="1037.4"/><rect height="2" width="2" x="5" y="1039.4"/><rect height="2" width="2" x="3" y="1041.4"/><rect height="2" width="2" x="5" y="1043.4"/><rect height="2" width="2" x="3" y="1045.4"/><rect height="2" width="2" x="7" y="1033.4"/><rect height="2" width="2" x="9" y="1035.4"/><rect height="2" width="2" x="7" y="1037.4"/><rect height="2" width="2" x="9" y="1039.4"/><rect height="2" width="2" x="7" y="1041.4"/><rect height="2" width="2" x="9" y="1043.4"/><rect height="2" width="2" x="7" y="1045.4"/><rect height="2" width="2" x="11" y="1033.4"/><rect height="2" width="2" x="13" y="1035.4"/><rect height="2" width="2" x="11" y="1037.4"/><rect height="2" width="2" x="13" y="1039.4"/><rect height="2" width="2" x="11" y="1041.4"/><rect height="2" width="2" x="13" y="1043.4"/><rect height="2" width="2" x="11" y="1045.4"/><rect height="2" width="2" x="15" y="1033.4"/><rect height="2" width="2" x="17" y="1035.4"/><rect height="2" width="2" x="15" y="1037.4"/><rect height="2" width="2" x="17" y="1039.4"/><rect height="2" width="2" x="15" y="1041.4"/><rect height="2" width="2" x="17" y="1043.4"/><rect height="2" width="2" x="15" y="1045.4"/><rect height="2" width="2" x="19" y="1033.4"/><rect height="2" width="2" x="19" y="1037.4"/><rect height="2" width="2" x="19" y="1041.4"/><rect height="2" width="2" x="19" y="1045.4"/></g><rect fill="#95a5a6" height="1" transform="translate(0 1028.4)" width="18" x="3" y="5"/></g></svg>