<svg width="103" height="128" viewBox="0 0 103 128" version="1.1" xmlns="http://www.w3.org/2000/svg" xmlns:xlink="http://www.w3.org/1999/xlink">
<g id="Canvas" fill="none">
<g id="nsj-file">
<g id="Vector">
<path d="M 96.7697 32.521L 73.3609 5.37729L 68.7341 0L 13.4304 0C 6.00764 0 0 6.01193 0 13.4389L 0.0428821 104.981L 8.38754 104.981L 8.32322 16.7108C 8.33179 12.5341 11.6894 9.15511 15.8574 9.15511L 63.1552 9.11223L 63.1552 31.5176C 63.1595 39.8622 69.9047 46.6203 78.2537 46.6203L 94.6257 46.6203L 93.8195 111.259C 93.8109 115.419 90.4405 118.772 86.281 118.802L 15.2657 118.772C 11.4664 118.772 8.40469 115.037 8.38754 110.444L 8.38754 104.981L 0.0428821 104.981L 0.0428821 113.133C 0.0428821 121.341 5.53595 128 12.2811 128L 88.7124 127.974C 96.1308 127.974 102.156 121.932 102.156 114.531L 102.156 38.7774L 96.7697 32.521Z" fill="#434440"/>
</g>
</g>
</g>
</svg>

