<svg width="129" height="128" viewBox="0 0 129 128" version="1.1" xmlns="http://www.w3.org/2000/svg" xmlns:xlink="http://www.w3.org/1999/xlink">
<g id="Canvas" fill="none">
<g id="nsj-powerpoint-white">
<g id="Group">
<g id="Vector">
<path d="M 96.7724 32.5264L 73.3635 5.3808L 68.7336 1.12523e-10L 13.4283 1.12523e-10C 6.00647 1.12523e-10 -7.73639e-07 6.01079 -7.73639e-07 13.4412L -7.73639e-07 30.5243L 8.32794 30.5243L 8.32363 16.712C 8.33226 12.5351 11.6893 9.15642 15.8576 9.15642L 63.1586 9.11327L 63.1586 31.521C 63.1629 39.8662 69.9072 46.6235 78.2568 46.6235L 94.6321 46.6235L 93.8253 111.262C 93.8123 115.426 90.4423 118.779 86.2869 118.809L 15.2621 118.775C 11.4606 118.775 8.4013 115.046 8.38404 110.451L 8.38404 104.975L 0.0388355 104.975L 0.0388355 113.135C 0.0388355 121.338 5.53182 128 12.2805 128L 88.7077 127.978C 96.1338 127.978 102.153 121.937 102.153 114.529L 102.153 38.7789L 96.7724 32.5264Z" transform="translate(26.2697 0)" fill="white"/>
</g>
<g id="Vector_2">
<path d="M 86.6796 82.7875L 0 82.7875L 0 2.63366e-07L 86.6796 2.63366e-07L 86.6796 82.7875ZM 8.32794 74.4509L 78.3387 74.4509L 78.3387 8.33657L 8.32794 8.33657" transform="translate(0 26.3558)" fill="white"/>
</g>
<g id="Vector_3">
<path d="M 20.2287 12.5609C 20.2287 11.0119 19.7584 9.77346 18.8047 8.85005C 17.8468 7.92233 16.2244 7.46063 13.9331 7.46063L 10.1143 7.46063L 10.1143 17.7994L 13.9072 17.7994C 16.3754 17.7994 18.0583 17.2859 18.9773 16.2718C 19.8145 15.3614 20.2287 14.1187 20.2287 12.5609ZM 30.3474 12.4488C 30.3474 15.8662 29.493 18.6839 27.7756 20.9234C 25.5448 23.8101 21.8511 25.26 16.6818 25.26L 10.1143 25.26L 10.1143 38.4682L 7.24257e-07 38.4682L 7.24257e-07 1.02054e-06L 16.5005 1.02054e-06C 21.1953 1.02054e-06 24.7594 1.29881 27.1931 3.90075C 29.2945 6.13161 30.3474 8.98382 30.3474 12.4488Z" transform="translate(29.7691 51.1284)" fill="white"/>
</g>
</g>
</g>
</g>
</svg>

